#prefab_suelo.obj
#Friday, February 05, 2016
#11:11:27 AM
#-------

#prefab_suelo
#-------
g prefab_suelo
v 0.5 -0.125 -0.5
v -0.5 -0.125 -0.5
v 0.5 0.125 -0.5
v -0.5 0.125 -0.5
v 0.5 0.125 0.5
v -0.5 0.125 0.5
v 0.5 -0.125 0.5
v -0.5 -0.125 0.5
v 0.5 0.125 -0.5
v -0.5 0.125 -0.5
v 0.5 0.125 0.5
v -0.5 0.125 0.5
v 0.5 -0.125 0.5
v -0.5 -0.125 -0.5
v -0.5 -0.125 0.5
v 0.5 -0.125 -0.5
v -0.5 -0.125 -0.5
v -0.5 0.125 0.5
v -0.5 -0.125 0.5
v -0.5 0.125 -0.5
v 0.5 -0.125 0.5
v 0.5 0.125 -0.5
v 0.5 -0.125 -0.5
v 0.5 0.125 0.5

vn 0 0 1
vn 0 0 1
vn 0 0 1
vn 0 0 1
vn 0 -1 0
vn 0 -1 0
vn 0 0 -1
vn 0 0 -1
vn 0 -1 0
vn 0 -1 0
vn 0 0 -1
vn 0 0 -1
vn 0 1 0
vn 0 1 0
vn 0 1 0
vn 0 1 0
vn 1 0 0
vn 1 0 0
vn 1 0 0
vn 1 0 0
vn -1 0 0
vn -1 0 0
vn -1 0 0
vn -1 0 0

vt 0 0
vt 1 0
vt 0 1
vt 1 1
vt 0 1
vt 1 1
vt 0 1
vt 1 1
vt 0 0
vt 1 0
vt 0 0
vt 1 0
vt 0 0
vt 1 1
vt 1 0
vt 0 1
vt 0 0
vt 1 1
vt 1 0
vt 0 1
vt 0 0
vt 1 1
vt 1 0
vt 0 1

usemtl material_suelo
usemap material_suelo
f 1/1/1 4/4/4 2/2/2
f 1/1/1 3/3/3 4/4/4
f 9/9/9 6/6/6 10/10/10
f 9/9/9 5/5/5 6/6/6
f 11/11/11 8/8/8 12/12/12
f 11/11/11 7/7/7 8/8/8
f 13/13/13 14/14/14 15/15/15
f 13/13/13 16/16/16 14/14/14
f 17/17/17 18/18/18 19/19/19
f 17/17/17 20/20/20 18/18/18
f 21/21/21 22/22/22 23/23/23
f 21/21/21 24/24/24 22/22/22
